<?xml version="1.0" encoding="utf-8"?>
<!-- Generator: Adobe Illustrator 23.0.1, SVG Export Plug-In . SVG Version: 6.00 Build 0)  -->
<svg version="1.1" id="bottle_x5F_of_x5F_wine" xmlns="http://www.w3.org/2000/svg" xmlns:xlink="http://www.w3.org/1999/xlink"
	 x="0px" y="0px" viewBox="0 0 193 193" style="enable-background:new 0 0 193 193;" xml:space="preserve">
<style type="text/css">
	.st0{fill:url(#circle_1_);stroke:#000000;stroke-width:0.75;stroke-miterlimit:10;}
	.st1{fill:url(#bottle_2_);stroke:#000000;stroke-width:0.5;stroke-miterlimit:10;}
	.st2{fill:url(#bottle_3_);stroke:#000000;stroke-width:0.5;stroke-miterlimit:10;}
	.st3{fill:url(#cap_1_);stroke:#000000;stroke-width:0.5;stroke-miterlimit:10;}
	.st4{fill:#FFFFFF;stroke:#000000;stroke-width:0.5;stroke-miterlimit:10;}
	.st5{fill:#FFDDE1;}
</style>
<linearGradient id="circle_1_" gradientUnits="userSpaceOnUse" x1="1.0175" y1="363.102" x2="193.2175" y2="363.102" gradientTransform="matrix(1 0 0 1 0 -266.602)">
	<stop  offset="0" style="stop-color:#DAE2F8"/>
	<stop  offset="0" style="stop-color:#FDF5E6"/>
</linearGradient>
<circle id="circle" class="st0" cx="96.5" cy="96.5" r="96.1"/>
<linearGradient id="bottle_2_" gradientUnits="userSpaceOnUse" x1="89.3555" y1="133.326" x2="103.5945" y2="133.326" gradientTransform="matrix(1 0 0 -1 0 193.276)">
	<stop  offset="0" style="stop-color:#FF416C"/>
	<stop  offset="1" style="stop-color:#FF4B2B"/>
</linearGradient>
<rect id="bottle_1_" x="89.4" y="26.1" class="st1" width="14.2" height="67.7"/>
<linearGradient id="bottle_3_" gradientUnits="userSpaceOnUse" x1="76.9" y1="79.126" x2="116.1" y2="79.126" gradientTransform="matrix(1 0 0 -1 0 193.276)">
	<stop  offset="0" style="stop-color:#FF416C"/>
	<stop  offset="1" style="stop-color:#FF4B2B"/>
</linearGradient>
<path id="bottle" class="st2" d="M113.4,168.3H79.6c-1.5,0-2.7-1.2-2.7-2.7V76c0-8.9,7.2-16,16-16h7.2c8.9,0,16,7.2,16,16v89.6
	C116.1,167,114.9,168.3,113.4,168.3z"/>
<linearGradient id="cap_1_" gradientUnits="userSpaceOnUse" x1="85.4584" y1="164.0743" x2="107.4916" y2="164.0743" gradientTransform="matrix(1 0 0 -1 0 193.276)">
	<stop  offset="0" style="stop-color:#FF416C"/>
	<stop  offset="1" style="stop-color:#FF4B2B"/>
</linearGradient>
<path id="cap" class="st3" d="M85.5,29.2L85.5,29.2c0-2.5,2-4.5,4.5-4.5h13c2.5,0,4.5,2,4.5,4.5l0,0c0,2.5-2,4.5-4.5,4.5H90
	C87.5,33.8,85.5,31.7,85.5,29.2z"/>
<g id="logo">
	<rect id="logo_1_" x="76.9" y="93.8" class="st4" width="39.2" height="33.1"/>
</g>
<g id="heart_x5F_body">
	<g id="left_x5F_part_x5F_heart_1_">
		<path id="left_x5F_top_x5F_part" class="st5" d="M96.6,106.8c0,3.1-2.8,5.6-6.1,5.6s-6.1-2.5-6.1-5.7s2.8-5.6,6.1-5.6
			c1,0,1.9,0.3,2.8,0.7C95.3,102.8,96.6,104.6,96.6,106.8z"/>
		<path id="left_x5F_botton_x5F_part" class="st5" d="M96.6,106.8l-0.1,14.7c0,0-15.7-10.2-11.7-17.2L96.6,106.8z"/>
	</g>
	<g id="left_x5F_part_x5F_heart">
		<path id="right_x5F_top" class="st5" d="M96.5,106.8c0,3.1,2.7,5.6,6.1,5.7c3.4,0,6.1-2.5,6.1-5.6s-2.7-5.6-6.1-5.6
			C99.3,101.2,96.5,103.6,96.5,106.8z"/>
		<path id="right_x5F_bottom" class="st5" d="M96.5,106.8l-0.1,14.7c0,0,15.7-10.1,11.8-17.1L96.5,106.8z"/>
	</g>
</g>
</svg>
