<?xml version="1.0" encoding="utf-8"?>
<!-- Generator: Adobe Illustrator 23.0.1, SVG Export Plug-In . SVG Version: 6.00 Build 0)  -->
<svg version="1.1" id="candy" xmlns="http://www.w3.org/2000/svg" xmlns:xlink="http://www.w3.org/1999/xlink" x="0px" y="0px"
	 viewBox="0 0 193 192.9" style="enable-background:new 0 0 193 192.9;" xml:space="preserve">
<style type="text/css">
	.st0{fill:url(#circle_1_);stroke:#000000;stroke-width:0.75;stroke-miterlimit:10;}
	.st1{fill:url(#part3_2_);}
	.st2{fill:url(#part2_2_);}
	.st3{fill:url(#part1_2_);}
	.st4{fill:url(#part3_3_);}
	.st5{fill:url(#part2_3_);}
	.st6{fill:url(#part1_3_);}
	.st7{fill:#FFDDE1;stroke:#000000;stroke-width:0.5;stroke-miterlimit:10;}
	.st8{fill:url(#left_x5F_top_x5F_part_5_);}
	.st9{fill:url(#left_x5F_botton_x5F_part_5_);}
	.st10{fill:url(#right_x5F_top_5_);}
	.st11{fill:url(#right_x5F_bottom_5_);}
	.st12{fill:url(#left_x5F_top_x5F_part_7_);}
	.st13{fill:url(#left_x5F_botton_x5F_part_7_);}
	.st14{fill:url(#right_x5F_top_7_);}
	.st15{fill:url(#right_x5F_bottom_7_);}
	.st16{fill:url(#left_x5F_top_x5F_part_8_);}
	.st17{fill:url(#left_x5F_botton_x5F_part_8_);}
	.st18{fill:url(#right_x5F_top_8_);}
	.st19{fill:url(#right_x5F_bottom_8_);}
	.st20{fill:url(#left_x5F_top_x5F_part_9_);}
	.st21{fill:url(#left_x5F_botton_x5F_part_9_);}
	.st22{fill:url(#right_x5F_top_9_);}
	.st23{fill:url(#right_x5F_bottom_9_);}
	.st24{fill:url(#left_x5F_top_x5F_part_10_);}
	.st25{fill:url(#left_x5F_botton_x5F_part_10_);}
	.st26{fill:url(#right_x5F_top_10_);}
	.st27{fill:url(#right_x5F_bottom_10_);}
	.st28{fill:url(#left_x5F_top_x5F_part_11_);}
	.st29{fill:url(#left_x5F_botton_x5F_part_11_);}
	.st30{fill:url(#right_x5F_top_11_);}
	.st31{fill:url(#right_x5F_bottom_11_);}
</style>
<linearGradient id="circle_1_" gradientUnits="userSpaceOnUse" x1="0.375" y1="499.861" x2="192.575" y2="499.861" gradientTransform="matrix(1 0 0 1 0 -403.386)">
	<stop  offset="0" style="stop-color:#11988D"/>
	<stop  offset="0" style="stop-color:#FCF4E5"/>
</linearGradient>
<circle id="circle" class="st0" cx="96.5" cy="96.5" r="96.1"/>
<g id="candy_1_">
	<g id="part_x5F_right_x5F_candy">
		
			<linearGradient id="part3_2_" gradientUnits="userSpaceOnUse" x1="128.0476" y1="11.5273" x2="142.9184" y2="11.5273" gradientTransform="matrix(0.9843 0.1765 -0.1765 0.9843 -9.255 18.1216)">
			<stop  offset="0" style="stop-color:#FF416C"/>
			<stop  offset="1" style="stop-color:#FF4B2B"/>
		</linearGradient>
		<path id="part3_1_" class="st1" d="M129.6,52.9c-2.7,11.8-8,20.6-12,19.7c-4-0.9-5-11.2-2.4-23c2.7-11.8,7.4-16.3,11.3-15.3
			C130.6,35.1,132.3,41.1,129.6,52.9z"/>
		
			<linearGradient id="part2_2_" gradientUnits="userSpaceOnUse" x1="107.7273" y1="66.0358" x2="139.0836" y2="66.0358" gradientTransform="matrix(0.9986 -5.200954e-02 5.200954e-02 0.9986 1.8549 -5.0822)">
			<stop  offset="0" style="stop-color:#FF416C"/>
			<stop  offset="1" style="stop-color:#FF4B2B"/>
		</linearGradient>
		<path id="part2_1_" class="st2" d="M135,58.7c-8.7,8.2-18,12.3-20.8,9.2c-2.8-3.1,2.1-12.2,10.8-20.4s14.7-8.9,17.5-5.9
			C145.2,44.8,143.7,50.5,135,58.7z"/>
		
			<linearGradient id="part1_2_" gradientUnits="userSpaceOnUse" x1="108.1352" y1="73.3977" x2="144.3955" y2="73.3977" gradientTransform="matrix(0.9986 -5.200954e-02 5.200954e-02 0.9986 1.8549 -5.0822)">
			<stop  offset="0" style="stop-color:#FF416C"/>
			<stop  offset="1" style="stop-color:#FF4B2B"/>
		</linearGradient>
		<path id="part1_1_" class="st3" d="M136.5,68.7c-11.5,3-21.6,2.1-22.6-1.9c-1-4,7.5-9.7,19-12.7s15.7-1.1,16.6,2.9
			C150.6,61.1,148,65.8,136.5,68.7z"/>
	</g>
	<g id="part_x5F_candy">
		
			<linearGradient id="part3_3_" gradientUnits="userSpaceOnUse" x1="-3.7513" y1="-5.0801" x2="11.1195" y2="-5.0801" gradientTransform="matrix(-0.9943 -0.1069 0.1069 -0.9943 75.4045 131.0062)">
			<stop  offset="0" style="stop-color:#FF416C"/>
			<stop  offset="1" style="stop-color:#FF4B2B"/>
		</linearGradient>
		<path id="part3" class="st4" d="M63.7,136.7c1.8-11.9,6.6-21.1,10.6-20.5c4,0.7,5.8,10.9,4,22.8c-1.8,11.9-6.2,16.7-10.2,16.1
			C64,154.5,61.9,148.6,63.7,136.7z"/>
		
			<linearGradient id="part2_3_" gradientUnits="userSpaceOnUse" x1="-16.8386" y1="19.8831" x2="14.5177" y2="19.8831" gradientTransform="matrix(-0.9925 0.1221 -0.1221 -0.9925 65.953 154.9335)">
			<stop  offset="0" style="stop-color:#FF416C"/>
			<stop  offset="1" style="stop-color:#FF4B2B"/>
		</linearGradient>
		<path id="part2" class="st5" d="M57.9,131.3c8.1-8.8,17.1-13.5,20.1-10.7c3,2.9-1.2,12.3-9.4,21.1s-14.1,10-17,7.1
			C48.7,145.9,49.8,140.1,57.9,131.3z"/>
		
			<linearGradient id="part1_3_" gradientUnits="userSpaceOnUse" x1="-16.4307" y1="27.245" x2="19.8295" y2="27.245" gradientTransform="matrix(-0.9925 0.1221 -0.1221 -0.9925 65.953 154.9335)">
			<stop  offset="0" style="stop-color:#FF416C"/>
			<stop  offset="1" style="stop-color:#FF4B2B"/>
		</linearGradient>
		<path id="part1" class="st6" d="M55.7,121.4c11.2-3.8,21.4-3.6,22.7,0.3s-6.8,10.2-18,14c-11.2,3.8-15.5,2.2-16.8-1.7
			C42.2,130,44.5,125.1,55.7,121.4z"/>
	</g>
	<path id="candy_2_" class="st7" d="M79.7,131.7L63.8,119c-6-4.8-7-13.6-2.2-19.7L94,58.8c4.8-6,13.6-7,19.7-2.2l15.9,12.7
		c6,4.8,7,13.6,2.2,19.7l-32.4,40.6C94.6,135.5,85.7,136.5,79.7,131.7z"/>
	<g id="heart_x5F_body">
		<g id="left_x5F_part_x5F_heart_1_">
			
				<linearGradient id="left_x5F_top_x5F_part_5_" gradientUnits="userSpaceOnUse" x1="286.0954" y1="315.338" x2="294.2562" y2="315.338" gradientTransform="matrix(0.4285 0.6138 -0.5881 0.4106 166.013 -247.1199)">
				<stop  offset="0" style="stop-color:#EF456E"/>
				<stop  offset="1" style="stop-color:#F05034"/>
			</linearGradient>
			<path id="left_x5F_top_x5F_part" class="st8" d="M106.7,63c-1.3,0.9-3.1,0.5-4.1-0.9c-1-1.4-0.7-3.2,0.6-4.1
				c1.3-0.9,3.1-0.5,4.1,0.9c0.3,0.4,0.5,0.9,0.5,1.3C108,61.3,107.6,62.4,106.7,63z"/>
			
				<linearGradient id="left_x5F_botton_x5F_part_5_" gradientUnits="userSpaceOnUse" x1="286.0592" y1="319.6729" x2="294.2588" y2="319.6729" gradientTransform="matrix(0.4285 0.6138 -0.5881 0.4106 166.013 -247.1199)">
				<stop  offset="0" style="stop-color:#EF456E"/>
				<stop  offset="1" style="stop-color:#F05034"/>
			</linearGradient>
			<path id="left_x5F_botton_x5F_part" class="st9" d="M106.7,63l-6.1,4.2c0,0-0.2-9.4,3.9-9.8L106.7,63z"/>
		</g>
		<g id="left_x5F_part_x5F_heart">
			
				<linearGradient id="right_x5F_top_5_" gradientUnits="userSpaceOnUse" x1="294.2151" y1="315.4122" x2="302.3867" y2="315.4122" gradientTransform="matrix(0.4285 0.6138 -0.5881 0.4106 166.013 -247.1199)">
				<stop  offset="0" style="stop-color:#EF456E"/>
				<stop  offset="1" style="stop-color:#F05034"/>
			</linearGradient>
			<path id="right_x5F_top" class="st10" d="M106.6,63c-1.3,0.9-1.6,2.7-0.6,4.2c1,1.4,2.8,1.8,4.1,0.9c1.3-0.9,1.6-2.7,0.6-4.1
				C109.8,62.5,107.9,62,106.6,63z"/>
			
				<linearGradient id="right_x5F_bottom_5_" gradientUnits="userSpaceOnUse" x1="294.1766" y1="319.6978" x2="302.4164" y2="319.6978" gradientTransform="matrix(0.4285 0.6138 -0.5881 0.4106 166.013 -247.1199)">
				<stop  offset="0" style="stop-color:#EF456E"/>
				<stop  offset="1" style="stop-color:#F05034"/>
			</linearGradient>
			<path id="right_x5F_bottom" class="st11" d="M106.6,63l-6.1,4.2c0,0,8.7,3.5,10.5-0.2L106.6,63z"/>
		</g>
	</g>
	<g id="heart_x5F_body_1_">
		<g id="left_x5F_part_x5F_heart_3_">
			
				<linearGradient id="left_x5F_top_x5F_part_7_" gradientUnits="userSpaceOnUse" x1="312.6045" y1="401.2433" x2="320.7654" y2="401.2433" gradientTransform="matrix(0.3395 0.6672 -0.6392 0.3253 264.1349 -258.0483)">
				<stop  offset="0" style="stop-color:#EF456E"/>
				<stop  offset="1" style="stop-color:#F05034"/>
			</linearGradient>
			<path id="left_x5F_top_x5F_part_1_" class="st12" d="M116.5,86.5c-1.4,0.7-3.2,0.1-3.9-1.4s-0.2-3.3,1.2-4
				c1.5-0.7,3.2-0.1,3.9,1.4c0.2,0.4,0.3,0.9,0.4,1.4C118.1,85,117.5,86,116.5,86.5z"/>
			
				<linearGradient id="left_x5F_botton_x5F_part_7_" gradientUnits="userSpaceOnUse" x1="312.5683" y1="405.5782" x2="320.7679" y2="405.5782" gradientTransform="matrix(0.3395 0.6672 -0.6392 0.3253 264.1349 -258.0483)">
				<stop  offset="0" style="stop-color:#EF456E"/>
				<stop  offset="1" style="stop-color:#F05034"/>
			</linearGradient>
			<path id="left_x5F_botton_x5F_part_1_" class="st13" d="M116.5,86.5l-6.7,3.4c0,0,1.1-9.3,5.2-9.1L116.5,86.5z"/>
		</g>
		<g id="left_x5F_part_x5F_heart_2_">
			
				<linearGradient id="right_x5F_top_7_" gradientUnits="userSpaceOnUse" x1="320.7242" y1="401.3175" x2="328.8958" y2="401.3175" gradientTransform="matrix(0.3395 0.6672 -0.6392 0.3253 264.1349 -258.0483)">
				<stop  offset="0" style="stop-color:#EF456E"/>
				<stop  offset="1" style="stop-color:#F05034"/>
			</linearGradient>
			<path id="right_x5F_top_1_" class="st14" d="M116.5,86.5c-1.4,0.7-1.9,2.5-1.2,4c0.8,1.5,2.5,2.1,3.9,1.4c1.4-0.7,1.9-2.5,1.2-4
				C119.7,86.4,118,85.7,116.5,86.5z"/>
			
				<linearGradient id="right_x5F_bottom_7_" gradientUnits="userSpaceOnUse" x1="320.6858" y1="405.6032" x2="328.9255" y2="405.6032" gradientTransform="matrix(0.3395 0.6672 -0.6392 0.3253 264.1349 -258.0483)">
				<stop  offset="0" style="stop-color:#EF456E"/>
				<stop  offset="1" style="stop-color:#F05034"/>
			</linearGradient>
			<path id="right_x5F_bottom_1_" class="st15" d="M116.5,86.5l-6.7,3.4c0,0,8.1,4.7,10.4,1.3L116.5,86.5z"/>
		</g>
	</g>
	<g id="heart_x5F_body_2_">
		<g id="left_x5F_part_x5F_heart_5_">
			
				<linearGradient id="left_x5F_top_x5F_part_8_" gradientUnits="userSpaceOnUse" x1="194.9903" y1="406.2852" x2="203.1511" y2="406.2852" gradientTransform="matrix(0.3727 0.6492 -0.622 0.3571 262.957 -155.1998)">
				<stop  offset="0" style="stop-color:#EF456E"/>
				<stop  offset="1" style="stop-color:#F05034"/>
			</linearGradient>
			<path id="left_x5F_top_x5F_part_2_" class="st16" d="M85.9,121.8c-1.4,0.8-3.2,0.2-4-1.2c-0.8-1.5-0.4-3.3,1-4.1s3.2-0.2,4,1.2
				c0.2,0.4,0.4,0.9,0.4,1.4C87.4,120.2,86.9,121.3,85.9,121.8z"/>
			
				<linearGradient id="left_x5F_botton_x5F_part_8_" gradientUnits="userSpaceOnUse" x1="194.9541" y1="410.6201" x2="203.1537" y2="410.6201" gradientTransform="matrix(0.3727 0.6492 -0.622 0.3571 262.957 -155.1998)">
				<stop  offset="0" style="stop-color:#EF456E"/>
				<stop  offset="1" style="stop-color:#F05034"/>
			</linearGradient>
			<path id="left_x5F_botton_x5F_part_2_" class="st17" d="M85.9,121.8l-6.5,3.7c0,0,0.6-9.3,4.7-9.4L85.9,121.8z"/>
		</g>
		<g id="left_x5F_part_x5F_heart_4_">
			
				<linearGradient id="right_x5F_top_8_" gradientUnits="userSpaceOnUse" x1="203.11" y1="406.3594" x2="211.2816" y2="406.3594" gradientTransform="matrix(0.3727 0.6492 -0.622 0.3571 262.957 -155.1998)">
				<stop  offset="0" style="stop-color:#EF456E"/>
				<stop  offset="1" style="stop-color:#F05034"/>
			</linearGradient>
			<path id="right_x5F_top_2_" class="st18" d="M85.9,121.8c-1.4,0.8-1.8,2.6-1,4.1c0.8,1.5,2.6,2,4,1.2c1.4-0.8,1.8-2.6,1-4.1
				C89.1,121.5,87.3,121,85.9,121.8z"/>
			
				<linearGradient id="right_x5F_bottom_8_" gradientUnits="userSpaceOnUse" x1="203.0715" y1="410.645" x2="211.3113" y2="410.645" gradientTransform="matrix(0.3727 0.6492 -0.622 0.3571 262.957 -155.1998)">
				<stop  offset="0" style="stop-color:#EF456E"/>
				<stop  offset="1" style="stop-color:#F05034"/>
			</linearGradient>
			<path id="right_x5F_bottom_2_" class="st19" d="M85.9,121.8l-6.5,3.7c0,0,8.3,4.2,10.5,0.7L85.9,121.8z"/>
		</g>
	</g>
	<g id="heart_x5F_body_3_">
		<g id="left_x5F_part_x5F_heart_7_">
			
				<linearGradient id="left_x5F_top_x5F_part_9_" gradientUnits="userSpaceOnUse" x1="121.672" y1="394.1477" x2="129.8329" y2="394.1477" gradientTransform="matrix(0.4849 0.5703 -0.5464 0.4646 228.3636 -157.5216)">
				<stop  offset="0" style="stop-color:#EF456E"/>
				<stop  offset="1" style="stop-color:#F05034"/>
			</linearGradient>
			<path id="left_x5F_top_x5F_part_3_" class="st20" d="M75.9,99.7c-1.2,1-3.1,0.8-4.2-0.5c-1.1-1.3-1-3.2,0.2-4.2s3.1-0.8,4.2,0.5
				c0.3,0.4,0.5,0.8,0.7,1.3C77.1,97.8,76.8,99,75.9,99.7z"/>
			
				<linearGradient id="left_x5F_botton_x5F_part_9_" gradientUnits="userSpaceOnUse" x1="121.6358" y1="398.4827" x2="129.8354" y2="398.4827" gradientTransform="matrix(0.4849 0.5703 -0.5464 0.4646 228.3636 -157.5216)">
				<stop  offset="0" style="stop-color:#EF456E"/>
				<stop  offset="1" style="stop-color:#F05034"/>
			</linearGradient>
			<path id="left_x5F_botton_x5F_part_3_" class="st21" d="M75.9,99.7l-5.7,4.8c0,0-1.1-9.3,2.9-10.1L75.9,99.7z"/>
		</g>
		<g id="left_x5F_part_x5F_heart_6_">
			
				<linearGradient id="right_x5F_top_9_" gradientUnits="userSpaceOnUse" x1="129.7917" y1="394.222" x2="137.9633" y2="394.222" gradientTransform="matrix(0.4849 0.5703 -0.5464 0.4646 228.3636 -157.5216)">
				<stop  offset="0" style="stop-color:#EF456E"/>
				<stop  offset="1" style="stop-color:#F05034"/>
			</linearGradient>
			<path id="right_x5F_top_3_" class="st22" d="M75.9,99.6c-1.2,1-1.3,2.9-0.2,4.2c1.1,1.3,3,1.5,4.2,0.5c1.2-1,1.3-2.9,0.2-4.2
				C79,98.8,77.1,98.6,75.9,99.6z"/>
			
				<linearGradient id="right_x5F_bottom_9_" gradientUnits="userSpaceOnUse" x1="129.7533" y1="398.5076" x2="137.993" y2="398.5076" gradientTransform="matrix(0.4849 0.5703 -0.5464 0.4646 228.3636 -157.5216)">
				<stop  offset="0" style="stop-color:#EF456E"/>
				<stop  offset="1" style="stop-color:#F05034"/>
			</linearGradient>
			<path id="right_x5F_bottom_3_" class="st23" d="M75.9,99.6l-5.7,4.8c0,0,9,2.7,10.4-1.2L75.9,99.6z"/>
		</g>
	</g>
	<g id="heart_x5F_body_4_">
		<g id="left_x5F_part_x5F_heart_9_">
			
				<linearGradient id="left_x5F_top_x5F_part_10_" gradientUnits="userSpaceOnUse" x1="145.5833" y1="397.7941" x2="153.7441" y2="397.7941" gradientTransform="matrix(0.4463 0.601 -0.5758 0.4276 251.761 -180.5416)">
				<stop  offset="0" style="stop-color:#EF456E"/>
				<stop  offset="1" style="stop-color:#F05034"/>
			</linearGradient>
			<path id="left_x5F_top_x5F_part_4_" class="st24" d="M91.3,82c-1.3,0.9-3.1,0.6-4.1-0.8c-1-1.3-0.8-3.2,0.5-4.2
				c1.3-0.9,3.1-0.6,4.1,0.8c0.3,0.4,0.5,0.8,0.6,1.3C92.6,80.2,92.2,81.3,91.3,82z"/>
			
				<linearGradient id="left_x5F_botton_x5F_part_10_" gradientUnits="userSpaceOnUse" x1="145.547" y1="402.129" x2="153.7466" y2="402.129" gradientTransform="matrix(0.4463 0.601 -0.5758 0.4276 251.761 -180.5416)">
				<stop  offset="0" style="stop-color:#EF456E"/>
				<stop  offset="1" style="stop-color:#F05034"/>
			</linearGradient>
			<path id="left_x5F_botton_x5F_part_4_" class="st25" d="M91.3,82l-6,4.4c0,0-0.5-9.3,3.6-9.9L91.3,82z"/>
		</g>
		<g id="left_x5F_part_x5F_heart_8_">
			
				<linearGradient id="right_x5F_top_10_" gradientUnits="userSpaceOnUse" x1="153.703" y1="397.8683" x2="161.8746" y2="397.8683" gradientTransform="matrix(0.4463 0.601 -0.5758 0.4276 251.761 -180.5416)">
				<stop  offset="0" style="stop-color:#EF456E"/>
				<stop  offset="1" style="stop-color:#F05034"/>
			</linearGradient>
			<path id="right_x5F_top_4_" class="st26" d="M91.3,82c-1.3,0.9-1.5,2.8-0.5,4.2c1,1.3,2.9,1.7,4.1,0.8c1.3-0.9,1.5-2.8,0.5-4.2
				C94.4,81.4,92.6,81,91.3,82z"/>
			
				<linearGradient id="right_x5F_bottom_10_" gradientUnits="userSpaceOnUse" x1="153.6645" y1="402.1539" x2="161.9043" y2="402.1539" gradientTransform="matrix(0.4463 0.601 -0.5758 0.4276 251.761 -180.5416)">
				<stop  offset="0" style="stop-color:#EF456E"/>
				<stop  offset="1" style="stop-color:#F05034"/>
			</linearGradient>
			<path id="right_x5F_bottom_4_" class="st27" d="M91.3,82l-6,4.4c0,0,8.8,3.2,10.5-0.5L91.3,82z"/>
		</g>
	</g>
	<g id="heart_x5F_body_6_">
		<g id="left_x5F_part_x5F_heart_13_">
			
				<linearGradient id="left_x5F_top_x5F_part_11_" gradientUnits="userSpaceOnUse" x1="267.8553" y1="374.0597" x2="276.0161" y2="374.0597" gradientTransform="matrix(0.3684 0.6517 -0.6244 0.3529 233.5172 -206.4692)">
				<stop  offset="0" style="stop-color:#EF456E"/>
				<stop  offset="1" style="stop-color:#F05034"/>
			</linearGradient>
			<path id="left_x5F_top_x5F_part_6_" class="st28" d="M101.6,105.5c-1.4,0.8-3.2,0.2-4-1.3c-0.8-1.5-0.4-3.3,1-4.1
				c1.4-0.8,3.2-0.2,4,1.3c0.2,0.4,0.4,0.9,0.4,1.4C103.1,103.8,102.6,104.9,101.6,105.5z"/>
			
				<linearGradient id="left_x5F_botton_x5F_part_11_" gradientUnits="userSpaceOnUse" x1="267.8191" y1="378.3946" x2="276.0187" y2="378.3946" gradientTransform="matrix(0.3684 0.6517 -0.6244 0.3529 233.5172 -206.4692)">
				<stop  offset="0" style="stop-color:#EF456E"/>
				<stop  offset="1" style="stop-color:#F05034"/>
			</linearGradient>
			<path id="left_x5F_botton_x5F_part_6_" class="st29" d="M101.6,105.5l-6.5,3.6c0,0,0.7-9.3,4.8-9.3L101.6,105.5z"/>
		</g>
		<g id="left_x5F_part_x5F_heart_12_">
			
				<linearGradient id="right_x5F_top_11_" gradientUnits="userSpaceOnUse" x1="275.975" y1="374.1339" x2="284.1466" y2="374.1339" gradientTransform="matrix(0.3684 0.6517 -0.6244 0.3529 233.5172 -206.4692)">
				<stop  offset="0" style="stop-color:#EF456E"/>
				<stop  offset="1" style="stop-color:#F05034"/>
			</linearGradient>
			<path id="right_x5F_top_6_" class="st30" d="M101.6,105.4c-1.4,0.8-1.8,2.6-1,4.1c0.8,1.5,2.6,2,4,1.3c1.4-0.8,1.8-2.6,1-4.1
				C104.8,105.2,103,104.6,101.6,105.4z"/>
			
				<linearGradient id="right_x5F_bottom_11_" gradientUnits="userSpaceOnUse" x1="275.9366" y1="378.4195" x2="284.1763" y2="378.4195" gradientTransform="matrix(0.3684 0.6517 -0.6244 0.3529 233.5172 -206.4692)">
				<stop  offset="0" style="stop-color:#EF456E"/>
				<stop  offset="1" style="stop-color:#F05034"/>
			</linearGradient>
			<path id="right_x5F_bottom_6_" class="st31" d="M101.6,105.4l-6.5,3.6c0,0,8.3,4.3,10.5,0.8L101.6,105.4z"/>
		</g>
	</g>
</g>
</svg>
