<?xml version="1.0" encoding="utf-8"?>
<!-- Generator: Adobe Illustrator 23.0.1, SVG Export Plug-In . SVG Version: 6.00 Build 0)  -->
<svg version="1.1" id="cloud_x5F_of_x5F_hearts" xmlns="http://www.w3.org/2000/svg" xmlns:xlink="http://www.w3.org/1999/xlink"
	 x="0px" y="0px" viewBox="0 0 193 193" style="enable-background:new 0 0 193 193;" xml:space="preserve">
<style type="text/css">
	.st0{fill:url(#circle_1_);stroke:#020202;stroke-width:0.75;stroke-miterlimit:10;}
	.st1{fill:none;stroke:#000000;stroke-miterlimit:10;}
	.st2{fill:url(#arrow_12_);stroke:#000000;stroke-width:0.5;stroke-miterlimit:10;}
	.st3{fill:url(#left_x5F_top_x5F_part_7_);}
	.st4{fill:url(#left_x5F_botton_x5F_part_7_);}
	.st5{fill:url(#right_x5F_top_7_);}
	.st6{fill:url(#right_x5F_bottom_7_);}
	.st7{fill:url(#cloud_9_);}
	.st8{fill:url(#cloud_10_);}
	.st9{fill:url(#cloud_11_);}
	.st10{fill:url(#cloud_12_);}
	.st11{fill:url(#cloud_13_);}
	.st12{fill:url(#cloud_14_);}
	.st13{fill:url(#cloud_15_);}
	.st14{fill:url(#arrow_13_);stroke:#000000;stroke-width:0.5;stroke-miterlimit:10;}
	.st15{fill:url(#left_x5F_top_x5F_part_8_);}
	.st16{fill:url(#left_x5F_botton_x5F_part_8_);}
	.st17{fill:url(#right_x5F_top_8_);}
	.st18{fill:url(#right_x5F_bottom_8_);}
	.st19{fill:url(#left_x5F_top_x5F_part_9_);}
	.st20{fill:url(#left_x5F_botton_x5F_part_9_);}
	.st21{fill:url(#right_x5F_top_9_);}
	.st22{fill:url(#right_x5F_bottom_9_);}
	.st23{fill:url(#left_x5F_top_x5F_part_10_);}
	.st24{fill:url(#left_x5F_botton_x5F_part_10_);}
	.st25{fill:url(#right_x5F_top_10_);}
	.st26{fill:url(#right_x5F_bottom_10_);}
	.st27{fill:url(#left_x5F_top_x5F_part_11_);}
	.st28{fill:url(#left_x5F_botton_x5F_part_11_);}
	.st29{fill:url(#right_x5F_top_11_);}
	.st30{fill:url(#right_x5F_bottom_11_);}
	.st31{fill:url(#left_x5F_top_x5F_part_12_);}
	.st32{fill:url(#left_x5F_botton_x5F_part_12_);}
	.st33{fill:url(#right_x5F_top_12_);}
	.st34{fill:url(#right_x5F_bottom_12_);}
	.st35{fill:url(#left_x5F_top_x5F_part_13_);}
	.st36{fill:url(#left_x5F_botton_x5F_part_13_);}
	.st37{fill:url(#right_x5F_top_13_);}
	.st38{fill:url(#right_x5F_bottom_13_);}
</style>
<linearGradient id="circle_1_" gradientUnits="userSpaceOnUse" x1="0.4" y1="-674.2538" x2="192.6" y2="-674.2538" gradientTransform="matrix(1 0 0 -1 0 -577.7538)">
	<stop  offset="0" style="stop-color:#17988F"/>
	<stop  offset="0" style="stop-color:#FCF4E7"/>
</linearGradient>
<circle id="circle" class="st0" cx="96.5" cy="96.5" r="96.1"/>
<g id="arrow_6_">
	<g id="arrow_8_">
		<g id="arrow_11_">
			<line class="st1" x1="45.3" y1="46.1" x2="45.9" y2="53.5"/>
			<g>
				<line class="st1" x1="48.1" y1="50.9" x2="48.8" y2="58.4"/>
				<line class="st1" x1="45.9" y1="47.2" x2="46.6" y2="54.6"/>
				<line class="st1" x1="46.7" y1="48.6" x2="47.3" y2="56"/>
				<line class="st1" x1="47.4" y1="49.9" x2="48.1" y2="57.4"/>
			</g>
		</g>
		<g id="arrow_10_">
			<line class="st1" x1="48.8" y1="58.4" x2="41.7" y2="56.1"/>
			<g>
				<line class="st1" x1="44.7" y1="54.5" x2="37.5" y2="52.3"/>
				<line class="st1" x1="47.8" y1="57.5" x2="40.7" y2="55.2"/>
				<line class="st1" x1="46.7" y1="56.4" x2="39.6" y2="54.2"/>
				<line class="st1" x1="45.5" y1="55.4" x2="38.4" y2="53.2"/>
			</g>
		</g>
		<g id="arrow_9_">
			<line class="st1" x1="48.8" y1="58.4" x2="41.7" y2="56.1"/>
			<g>
				<line class="st1" x1="44.7" y1="54.5" x2="37.6" y2="52.3"/>
				<line class="st1" x1="47.9" y1="57.5" x2="40.8" y2="55.2"/>
				<line class="st1" x1="46.7" y1="56.4" x2="39.6" y2="54.2"/>
				<line class="st1" x1="45.5" y1="55.4" x2="38.4" y2="53.2"/>
			</g>
		</g>
	</g>
	
		<linearGradient id="arrow_12_" gradientUnits="userSpaceOnUse" x1="-309.0099" y1="915.3934" x2="-247.6324" y2="915.3934" gradientTransform="matrix(-0.2989 0.7626 0.8408 -7.380012e-02 -791.2512 356.3993)">
		<stop  offset="0" style="stop-color:#F05434"/>
		<stop  offset="1" style="stop-color:#EF4870"/>
	</linearGradient>
	<polygon id="arrow_7_" class="st2" points="46.1,56.5 47.9,55.2 70.6,87.5 77.1,96.7 75.2,98 68.8,88.8 68.6,88.5 68.3,88.2 
		67.9,87.6 	"/>
	<g id="heart_x5F_body_1_">
		<g id="left_x5F_part_x5F_heart_3_">
			
				<linearGradient id="left_x5F_top_x5F_part_7_" gradientUnits="userSpaceOnUse" x1="336.0956" y1="-1416.6926" x2="343.0281" y2="-1416.6926" gradientTransform="matrix(0.7104 -0.5221 -0.5922 -0.8058 -1006.1771 -865.0455)">
				<stop  offset="0" style="stop-color:#EF4870"/>
				<stop  offset="1" style="stop-color:#F05434"/>
			</linearGradient>
			<path id="left_x5F_top_x5F_part_1_" class="st3" d="M76.5,97.5c1.1,1.5,0.9,3.6-0.5,4.5c-1.3,1-3.4,0.6-4.5-1s-0.9-3.6,0.5-4.5
				c0.4-0.3,0.9-0.4,1.4-0.5C74.5,95.9,75.7,96.4,76.5,97.5z"/>
			
				<linearGradient id="left_x5F_botton_x5F_part_7_" gradientUnits="userSpaceOnUse" x1="336.0649" y1="-1420.4722" x2="343.0303" y2="-1420.4722" gradientTransform="matrix(0.7104 -0.5221 -0.5922 -0.8058 -1006.1771 -865.0455)">
				<stop  offset="0" style="stop-color:#EF4870"/>
				<stop  offset="1" style="stop-color:#F05434"/>
			</linearGradient>
			<path id="left_x5F_botton_x5F_part_1_" class="st4" d="M76.5,97.5l5.2,7.2c0,0-9.9-0.3-10.8-4.9L76.5,97.5z"/>
		</g>
		<g id="left_x5F_part_x5F_heart_2_">
			
				<linearGradient id="right_x5F_top_7_" gradientUnits="userSpaceOnUse" x1="342.9932" y1="-1416.8121" x2="349.9348" y2="-1416.8121" gradientTransform="matrix(0.7104 -0.5221 -0.5922 -0.8058 -1006.1771 -865.0455)">
				<stop  offset="0" style="stop-color:#EF4870"/>
				<stop  offset="1" style="stop-color:#F05434"/>
			</linearGradient>
			<path id="right_x5F_top_1_" class="st5" d="M76.4,97.5c1.1,1.5,3.1,1.9,4.5,1c1.4-1,1.6-3,0.5-4.5s-3.1-1.9-4.5-0.9
				C75.5,94,75.2,96,76.4,97.5z"/>
			
				<linearGradient id="right_x5F_bottom_7_" gradientUnits="userSpaceOnUse" x1="342.9605" y1="-1420.4164" x2="349.9592" y2="-1420.4164" gradientTransform="matrix(0.7104 -0.5221 -0.5922 -0.8058 -1006.1771 -865.0455)">
				<stop  offset="0" style="stop-color:#EF4870"/>
				<stop  offset="1" style="stop-color:#F05434"/>
			</linearGradient>
			<path id="right_x5F_bottom_1_" class="st6" d="M76.4,97.5l5.2,7.2c0,0,2.7-9.5-1.4-11.8L76.4,97.5z"/>
		</g>
	</g>
</g>
<g id="cloud_1_">
	
		<linearGradient id="cloud_9_" gradientUnits="userSpaceOnUse" x1="-125.6067" y1="-95.5369" x2="-44.0088" y2="-95.5369" gradientTransform="matrix(0.8421 -0.5849 -0.5817 -0.8468 112.3135 5.5501)">
		<stop  offset="1" style="stop-color:#FCDCE1"/>
		<stop  offset="1" style="stop-color:#FFFFFF"/>
	</linearGradient>
	<path id="cloud_8_" class="st7" d="M141,127l0.1,19.9c-3.4,2.2-7.5,3.5-11.9,3.6c-6.3,0-12.1-2.6-16.1-6.8c-4,3.7-9.3,6-15.1,6
		c-8.8,0.1-16.4-5-20.1-12.5c-3.7,4.7-9.4,7.8-15.9,7.9c-5.2,0-9.9-1.9-13.5-5l-0.1-12.5L141,127z"/>
	
		<linearGradient id="cloud_10_" gradientUnits="userSpaceOnUse" x1="-126.1864" y1="-67.2975" x2="-86.4902" y2="-67.2975" gradientTransform="matrix(0.8421 -0.5849 -0.5817 -0.8468 112.3135 5.5501)">
		<stop  offset="1" style="stop-color:#FCDCE1"/>
		<stop  offset="1" style="stop-color:#FFFFFF"/>
	</linearGradient>
	<path id="cloud_7_" class="st8" d="M82.2,124.6c0,0.1,0,0.3,0,0.4c0,0.8-0.1,1.6-0.2,2.4c-0.5,3.7-1.9,7.1-4.1,9.9
		c-3.7,4.7-9.4,7.8-15.9,7.9c-5.2,0-9.9-1.9-13.5-5c-4.2-3.7-6.9-9.2-6.9-15.3c-0.1-11.3,9-20.5,20.2-20.5c3.6,0,6.9,0.9,9.8,2.5
		c3.3,1.8,6.1,4.5,7.9,7.8C81.2,117.5,82.1,120.9,82.2,124.6z"/>
	
		<linearGradient id="cloud_11_" gradientUnits="userSpaceOnUse" x1="-93.5214" y1="-69.358" x2="-63.4995" y2="-69.358" gradientTransform="matrix(0.8421 -0.5849 -0.5817 -0.8468 112.3135 5.5501)">
		<stop  offset="1" style="stop-color:#FCDCE1"/>
		<stop  offset="1" style="stop-color:#FFFFFF"/>
	</linearGradient>
	<path id="cloud_6_" class="st9" d="M101.9,110.1c0,8.5-6.8,15.5-15.3,15.5s-15.4-6.8-15.4-15.3S78,94.8,86.5,94.8
		S101.8,101.5,101.9,110.1z"/>
	
		<linearGradient id="cloud_12_" gradientUnits="userSpaceOnUse" x1="-73.6116" y1="-82.1761" x2="-50.0405" y2="-82.1761" gradientTransform="matrix(0.8421 -0.5849 -0.5817 -0.8468 112.3135 5.5501)">
		<stop  offset="1" style="stop-color:#FCDCE1"/>
		<stop  offset="1" style="stop-color:#FFFFFF"/>
	</linearGradient>
	<path id="cloud_5_" class="st10" d="M120.1,111.2c0,6.7-5.3,12.1-12,12.2c-6.7,0-12.1-5.4-12.1-12c0-6.7,5.3-12.1,12-12.2
		S120,104.5,120.1,111.2z"/>
	
		<linearGradient id="cloud_13_" gradientUnits="userSpaceOnUse" x1="-100.6806" y1="-89.2274" x2="-57.0802" y2="-89.2274" gradientTransform="matrix(0.8421 -0.5849 -0.5817 -0.8468 112.3135 5.5501)">
		<stop  offset="1" style="stop-color:#FCDCE1"/>
		<stop  offset="1" style="stop-color:#FFFFFF"/>
	</linearGradient>
	<path id="cloud_4_" class="st11" d="M120.1,127.2c0,6.5-2.7,12.4-7.1,16.5c-4,3.7-9.3,6-15.1,6c-8.8,0.1-16.4-5-20.1-12.5
		c-1.5-3-2.3-6.3-2.3-9.8c0-2,0.2-3.9,0.7-5.8c0.7-2.6,1.8-5,3.2-7.1c4-5.8,10.7-9.7,18.2-9.7h0.1c1.1,0,2.2,0.1,3.2,0.2
		c5,0.7,9.5,3.1,12.9,6.6c1.7,1.8,3.2,3.9,4.2,6.2C119.4,120.7,120.1,123.8,120.1,127.2z"/>
	
		<linearGradient id="cloud_14_" gradientUnits="userSpaceOnUse" x1="-75.9694" y1="-107.2686" x2="-32.3848" y2="-107.2686" gradientTransform="matrix(0.8421 -0.5849 -0.5817 -0.8468 112.3135 5.5501)">
		<stop  offset="1" style="stop-color:#FCDCE1"/>
		<stop  offset="1" style="stop-color:#FFFFFF"/>
	</linearGradient>
	<path id="cloud_3_" class="st12" d="M151.4,127.9c0,8-4,15-10.2,19c-3.4,2.2-7.5,3.5-11.9,3.6c-6.3,0-12.1-2.6-16.1-6.8
		c-3.9-4-6.2-9.5-6.3-15.5c0-0.3,0-0.6,0-1c0-1.3,0.2-2.6,0.5-3.9c1-4.6,3.3-8.6,6.6-11.7c1.7-1.6,3.6-2.9,5.7-3.9
		c2.9-1.4,6-2.1,9.4-2.1C141.3,105.6,151.3,115.6,151.4,127.9z"/>
	
		<linearGradient id="cloud_15_" gradientUnits="userSpaceOnUse" x1="-123.1309" y1="-80.3775" x2="-79.5304" y2="-80.3775" gradientTransform="matrix(0.8421 -0.5849 -0.5817 -0.8468 112.3135 5.5501)">
		<stop  offset="1" style="stop-color:#FCDCE1"/>
		<stop  offset="1" style="stop-color:#FFFFFF"/>
	</linearGradient>
	<path id="cloud_2_" class="st13" d="M96.1,132.8c0,6.5-2.7,12.4-7.1,16.5c-4,3.7-9.3,6-15.1,6c-8.8,0.1-16.4-5-20.1-12.5
		c-1.5-3-2.3-6.3-2.3-9.8c0-2,0.2-3.9,0.7-5.8c0.7-2.6,1.8-5,3.2-7.1c4-5.8,10.7-9.7,18.2-9.7h0.1c1.1,0,2.2,0.1,3.2,0.2
		c5,0.7,9.5,3.1,12.9,6.6c1.7,1.8,3.2,3.9,4.2,6.2C95.3,126.4,96.1,129.5,96.1,132.8z"/>
</g>
<g id="arrow_2_">
	<g id="arrow_5_">
		<line class="st1" x1="123.4" y1="28.3" x2="120.6" y2="32.2"/>
		<g>
			<line class="st1" x1="122.7" y1="31.9" x2="119.9" y2="35.7"/>
			<line class="st1" x1="123.3" y1="29.2" x2="120.5" y2="33"/>
			<line class="st1" x1="123" y1="30.1" x2="120.2" y2="33.9"/>
			<line class="st1" x1="122.8" y1="31.1" x2="120" y2="34.9"/>
		</g>
	</g>
	<g id="arrow_4_">
		<line class="st1" x1="119.9" y1="35.7" x2="117.5" y2="31.6"/>
		<g>
			<line class="st1" x1="119.6" y1="32.1" x2="117.1" y2="28"/>
			<line class="st1" x1="119.8" y1="34.8" x2="117.4" y2="30.8"/>
			<line class="st1" x1="119.7" y1="33.9" x2="117.3" y2="29.8"/>
			<line class="st1" x1="119.6" y1="32.9" x2="117.2" y2="28.8"/>
		</g>
	</g>
	<g id="arrow_3_">
		<line class="st1" x1="119.9" y1="35.7" x2="117.5" y2="31.6"/>
		<g>
			<line class="st1" x1="119.6" y1="32.1" x2="117.2" y2="28.1"/>
			<line class="st1" x1="119.9" y1="34.9" x2="117.4" y2="30.8"/>
			<line class="st1" x1="119.8" y1="33.9" x2="117.3" y2="29.8"/>
			<line class="st1" x1="119.6" y1="32.9" x2="117.2" y2="28.9"/>
		</g>
	</g>
</g>
<linearGradient id="arrow_13_" gradientUnits="userSpaceOnUse" x1="-689.7067" y1="841.7434" x2="-650.7506" y2="841.7434" gradientTransform="matrix(-0.7288 0.374 0.6792 0.5011 -941.8267 -121.4311)">
	<stop  offset="0" style="stop-color:#F05434"/>
	<stop  offset="1" style="stop-color:#EF4870"/>
</linearGradient>
<polygon id="arrow_1_" class="st14" points="119.4,33.6 120.8,33.8 118.1,58.7 117.3,65.8 115.9,65.6 116.6,58.6 116.7,58.4 
	116.7,58.1 116.8,57.6 "/>
<g id="heart_x5F_body">
	<g id="left_x5F_part_x5F_heart_1_">
		
			<linearGradient id="left_x5F_top_x5F_part_8_" gradientUnits="userSpaceOnUse" x1="213.6698" y1="-1370.8878" x2="217.1634" y2="-1370.8878" gradientTransform="matrix(1.9689 5.799543e-02 6.046970e-02 -2.0529 -285.2129 -2708.1516)">
			<stop  offset="0" style="stop-color:#EF476F"/>
			<stop  offset="1" style="stop-color:#F05234"/>
		</linearGradient>
		<path id="left_x5F_top_x5F_part" class="st15" d="M59.5,118.7c-0.1,1.9-1.7,3.4-3.5,3.4c-1.8-0.1-3.4-1.7-3.3-3.7
			c0.1-2,1.7-3.4,3.5-3.4c0.6,0,1.1,0.2,1.6,0.5C58.8,116.2,59.5,117.3,59.5,118.7z"/>
		
			<linearGradient id="left_x5F_botton_x5F_part_8_" gradientUnits="userSpaceOnUse" x1="213.6543" y1="-1372.7593" x2="217.1645" y2="-1372.7593" gradientTransform="matrix(1.9689 5.799543e-02 6.046970e-02 -2.0529 -285.2129 -2708.1516)">
			<stop  offset="0" style="stop-color:#EF476F"/>
			<stop  offset="1" style="stop-color:#F05234"/>
		</linearGradient>
		<path id="left_x5F_botton_x5F_part" class="st16" d="M59.5,118.7l-0.4,9.2c0,0-8.6-6.6-6.2-10.9L59.5,118.7z"/>
	</g>
	<g id="left_x5F_part_x5F_heart">
		
			<linearGradient id="right_x5F_top_8_" gradientUnits="userSpaceOnUse" x1="217.1458" y1="-1370.9507" x2="220.6439" y2="-1370.9507" gradientTransform="matrix(1.9689 5.799543e-02 6.046970e-02 -2.0529 -285.2129 -2708.1516)">
			<stop  offset="0" style="stop-color:#EF476F"/>
			<stop  offset="1" style="stop-color:#F05234"/>
		</linearGradient>
		<path id="right_x5F_top" class="st17" d="M59.4,118.7c-0.1,1.9,1.4,3.5,3.3,3.7c1.9,0.1,3.5-1.5,3.5-3.4s-1.4-3.5-3.3-3.6
			C61.1,115.3,59.5,116.7,59.4,118.7z"/>
		
			<linearGradient id="right_x5F_bottom_8_" gradientUnits="userSpaceOnUse" x1="217.1293" y1="-1372.7806" x2="220.6566" y2="-1372.7806" gradientTransform="matrix(1.9689 5.799543e-02 6.046970e-02 -2.0529 -285.2129 -2708.1516)">
			<stop  offset="0" style="stop-color:#EF476F"/>
			<stop  offset="1" style="stop-color:#F05234"/>
		</linearGradient>
		<path id="right_x5F_bottom" class="st18" d="M59.4,118.7l-0.4,9.2c0,0,9-6,6.9-10.5L59.4,118.7z"/>
	</g>
</g>
<g id="heart_x5F_body_6_">
	<g id="left_x5F_part_x5F_heart_13_">
		
			<linearGradient id="left_x5F_top_x5F_part_9_" gradientUnits="userSpaceOnUse" x1="223.3219" y1="-1379.7441" x2="226.8154" y2="-1379.7441" gradientTransform="matrix(1.9689 5.799543e-02 6.046970e-02 -2.0529 -285.2129 -2708.1516)">
			<stop  offset="0" style="stop-color:#EF476F"/>
			<stop  offset="1" style="stop-color:#F05234"/>
		</linearGradient>
		<path id="left_x5F_top_x5F_part_6_" class="st19" d="M77.9,137.5c-0.1,1.9-1.7,3.4-3.5,3.4c-1.8-0.1-3.4-1.7-3.3-3.7
			s1.7-3.4,3.5-3.4c0.6,0,1.1,0.2,1.6,0.5C77.3,134.9,78,136.1,77.9,137.5z"/>
		
			<linearGradient id="left_x5F_botton_x5F_part_9_" gradientUnits="userSpaceOnUse" x1="223.3064" y1="-1381.6157" x2="226.8165" y2="-1381.6157" gradientTransform="matrix(1.9689 5.799543e-02 6.046970e-02 -2.0529 -285.2129 -2708.1516)">
			<stop  offset="0" style="stop-color:#EF476F"/>
			<stop  offset="1" style="stop-color:#F05234"/>
		</linearGradient>
		<path id="left_x5F_botton_x5F_part_6_" class="st20" d="M77.9,137.5l-0.4,9.2c0,0-8.6-6.6-6.2-10.9L77.9,137.5z"/>
	</g>
	<g id="left_x5F_part_x5F_heart_12_">
		
			<linearGradient id="right_x5F_top_9_" gradientUnits="userSpaceOnUse" x1="226.7978" y1="-1379.8071" x2="230.2959" y2="-1379.8071" gradientTransform="matrix(1.9689 5.799543e-02 6.046970e-02 -2.0529 -285.2129 -2708.1516)">
			<stop  offset="0" style="stop-color:#EF476F"/>
			<stop  offset="1" style="stop-color:#F05234"/>
		</linearGradient>
		<path id="right_x5F_top_6_" class="st21" d="M77.9,137.5c-0.1,1.9,1.4,3.5,3.3,3.7c1.9,0.1,3.5-1.5,3.5-3.4
			c0.1-1.9-1.4-3.5-3.3-3.6C79.6,134,77.9,135.5,77.9,137.5z"/>
		
			<linearGradient id="right_x5F_bottom_9_" gradientUnits="userSpaceOnUse" x1="226.7813" y1="-1381.637" x2="230.3086" y2="-1381.637" gradientTransform="matrix(1.9689 5.799543e-02 6.046970e-02 -2.0529 -285.2129 -2708.1516)">
			<stop  offset="0" style="stop-color:#EF476F"/>
			<stop  offset="1" style="stop-color:#F05234"/>
		</linearGradient>
		<path id="right_x5F_bottom_6_" class="st22" d="M77.9,137.5l-0.4,9.2c0,0,9-6,6.9-10.5L77.9,137.5z"/>
	</g>
</g>
<g id="heart_x5F_body_5_">
	<g id="left_x5F_part_x5F_heart_11_">
		
			<linearGradient id="left_x5F_top_x5F_part_10_" gradientUnits="userSpaceOnUse" x1="232.1555" y1="-1367.2362" x2="235.6491" y2="-1367.2362" gradientTransform="matrix(1.9689 5.799543e-02 6.046970e-02 -2.0529 -285.2129 -2708.1516)">
			<stop  offset="0" style="stop-color:#EF476F"/>
			<stop  offset="1" style="stop-color:#F05234"/>
		</linearGradient>
		<path id="left_x5F_top_x5F_part_5_" class="st23" d="M96.1,112.3c-0.1,1.9-1.7,3.4-3.5,3.4c-1.8-0.1-3.4-1.7-3.3-3.7
			c0.1-2,1.7-3.4,3.5-3.4c0.6,0,1.1,0.2,1.6,0.5C95.4,109.8,96.1,110.9,96.1,112.3z"/>
		
			<linearGradient id="left_x5F_botton_x5F_part_10_" gradientUnits="userSpaceOnUse" x1="232.14" y1="-1369.1077" x2="235.6502" y2="-1369.1077" gradientTransform="matrix(1.9689 5.799543e-02 6.046970e-02 -2.0529 -285.2129 -2708.1516)">
			<stop  offset="0" style="stop-color:#EF476F"/>
			<stop  offset="1" style="stop-color:#F05234"/>
		</linearGradient>
		<path id="left_x5F_botton_x5F_part_5_" class="st24" d="M96.1,112.3l-0.4,9.2c0,0-8.6-6.6-6.2-10.9L96.1,112.3z"/>
	</g>
	<g id="left_x5F_part_x5F_heart_10_">
		
			<linearGradient id="right_x5F_top_10_" gradientUnits="userSpaceOnUse" x1="235.6315" y1="-1367.2991" x2="239.1296" y2="-1367.2991" gradientTransform="matrix(1.9689 5.799543e-02 6.046970e-02 -2.0529 -285.2129 -2708.1516)">
			<stop  offset="0" style="stop-color:#EF476F"/>
			<stop  offset="1" style="stop-color:#F05234"/>
		</linearGradient>
		<path id="right_x5F_top_5_" class="st25" d="M96,112.3c-0.1,1.9,1.4,3.5,3.3,3.7c1.9,0.1,3.5-1.5,3.5-3.4c0.1-1.9-1.4-3.5-3.3-3.6
			C97.7,108.9,96.1,110.3,96,112.3z"/>
		
			<linearGradient id="right_x5F_bottom_10_" gradientUnits="userSpaceOnUse" x1="235.615" y1="-1369.1289" x2="239.1423" y2="-1369.1289" gradientTransform="matrix(1.9689 5.799543e-02 6.046970e-02 -2.0529 -285.2129 -2708.1516)">
			<stop  offset="0" style="stop-color:#EF476F"/>
			<stop  offset="1" style="stop-color:#F05234"/>
		</linearGradient>
		<path id="right_x5F_bottom_5_" class="st26" d="M96,112.3l-0.4,9.2c0,0,9-6,6.9-10.5L96,112.3z"/>
	</g>
</g>
<g id="heart_x5F_body_2_">
	<g id="left_x5F_part_x5F_heart_5_">
		
			<linearGradient id="left_x5F_top_x5F_part_11_" gradientUnits="userSpaceOnUse" x1="239.5043" y1="-1376.4861" x2="242.9978" y2="-1376.4861" gradientTransform="matrix(1.9689 5.799543e-02 6.046970e-02 -2.0529 -285.2129 -2708.1516)">
			<stop  offset="0" style="stop-color:#EF476F"/>
			<stop  offset="1" style="stop-color:#F05234"/>
		</linearGradient>
		<path id="left_x5F_top_x5F_part_2_" class="st27" d="M110,131.7c-0.1,1.9-1.7,3.4-3.5,3.4c-1.8-0.1-3.4-1.7-3.3-3.7
			s1.7-3.4,3.5-3.4c0.6,0,1.1,0.2,1.6,0.5C109.3,129.2,110,130.3,110,131.7z"/>
		
			<linearGradient id="left_x5F_botton_x5F_part_11_" gradientUnits="userSpaceOnUse" x1="239.4888" y1="-1378.3575" x2="242.9989" y2="-1378.3575" gradientTransform="matrix(1.9689 5.799543e-02 6.046970e-02 -2.0529 -285.2129 -2708.1516)">
			<stop  offset="0" style="stop-color:#EF476F"/>
			<stop  offset="1" style="stop-color:#F05234"/>
		</linearGradient>
		<path id="left_x5F_botton_x5F_part_2_" class="st28" d="M110,131.7l-0.4,9.2c0,0-8.6-6.6-6.2-10.9L110,131.7z"/>
	</g>
	<g id="left_x5F_part_x5F_heart_4_">
		
			<linearGradient id="right_x5F_top_11_" gradientUnits="userSpaceOnUse" x1="242.9802" y1="-1376.549" x2="246.4784" y2="-1376.549" gradientTransform="matrix(1.9689 5.799543e-02 6.046970e-02 -2.0529 -285.2129 -2708.1516)">
			<stop  offset="0" style="stop-color:#EF476F"/>
			<stop  offset="1" style="stop-color:#F05234"/>
		</linearGradient>
		<path id="right_x5F_top_2_" class="st29" d="M109.9,131.7c-0.1,1.9,1.4,3.5,3.3,3.7c1.9,0.1,3.5-1.5,3.5-3.4
			c0.1-1.9-1.4-3.5-3.3-3.6C111.6,128.3,110,129.7,109.9,131.7z"/>
		
			<linearGradient id="right_x5F_bottom_11_" gradientUnits="userSpaceOnUse" x1="242.9638" y1="-1378.3789" x2="246.491" y2="-1378.3789" gradientTransform="matrix(1.9689 5.799543e-02 6.046970e-02 -2.0529 -285.2129 -2708.1516)">
			<stop  offset="0" style="stop-color:#EF476F"/>
			<stop  offset="1" style="stop-color:#F05234"/>
		</linearGradient>
		<path id="right_x5F_bottom_2_" class="st30" d="M109.9,131.7l-0.4,9.2c0,0,9-6,6.9-10.5L109.9,131.7z"/>
	</g>
</g>
<g id="heart_x5F_body_3_">
	<g id="left_x5F_part_x5F_heart_7_">
		
			<linearGradient id="left_x5F_top_x5F_part_12_" gradientUnits="userSpaceOnUse" x1="252.1125" y1="-1373.1788" x2="255.6061" y2="-1373.1788" gradientTransform="matrix(1.9689 5.799543e-02 6.046970e-02 -2.0529 -285.2129 -2708.1516)">
			<stop  offset="0" style="stop-color:#EF476F"/>
			<stop  offset="1" style="stop-color:#F05234"/>
		</linearGradient>
		<path id="left_x5F_top_x5F_part_3_" class="st31" d="M135,125.7c-0.1,1.9-1.7,3.4-3.5,3.4c-1.8-0.1-3.4-1.7-3.3-3.7
			s1.7-3.4,3.5-3.4c0.6,0,1.1,0.2,1.6,0.5C134.4,123.1,135.1,124.3,135,125.7z"/>
		
			<linearGradient id="left_x5F_botton_x5F_part_12_" gradientUnits="userSpaceOnUse" x1="252.097" y1="-1375.0504" x2="255.6072" y2="-1375.0504" gradientTransform="matrix(1.9689 5.799543e-02 6.046970e-02 -2.0529 -285.2129 -2708.1516)">
			<stop  offset="0" style="stop-color:#EF476F"/>
			<stop  offset="1" style="stop-color:#F05234"/>
		</linearGradient>
		<path id="left_x5F_botton_x5F_part_3_" class="st32" d="M135,125.7l-0.4,9.2c0,0-8.6-6.6-6.2-10.9L135,125.7z"/>
	</g>
	<g id="left_x5F_part_x5F_heart_6_">
		
			<linearGradient id="right_x5F_top_12_" gradientUnits="userSpaceOnUse" x1="255.5885" y1="-1373.2418" x2="259.0866" y2="-1373.2418" gradientTransform="matrix(1.9689 5.799543e-02 6.046970e-02 -2.0529 -285.2129 -2708.1516)">
			<stop  offset="0" style="stop-color:#EF476F"/>
			<stop  offset="1" style="stop-color:#F05234"/>
		</linearGradient>
		<path id="right_x5F_top_3_" class="st33" d="M134.9,125.7c-0.1,1.9,1.4,3.5,3.3,3.7c1.9,0.1,3.5-1.5,3.5-3.4
			c0.1-1.9-1.4-3.5-3.3-3.6C136.6,122.2,135,123.7,134.9,125.7z"/>
		
			<linearGradient id="right_x5F_bottom_12_" gradientUnits="userSpaceOnUse" x1="255.572" y1="-1375.0717" x2="259.0993" y2="-1375.0717" gradientTransform="matrix(1.9689 5.799543e-02 6.046970e-02 -2.0529 -285.2129 -2708.1516)">
			<stop  offset="0" style="stop-color:#EF476F"/>
			<stop  offset="1" style="stop-color:#F05234"/>
		</linearGradient>
		<path id="right_x5F_bottom_3_" class="st34" d="M134.9,125.7l-0.4,9.2c0,0,9-6,6.9-10.5L134.9,125.7z"/>
	</g>
</g>
<g id="heart_x5F_body_4_">
	<g id="left_x5F_part_x5F_heart_9_">
		
			<linearGradient id="left_x5F_top_x5F_part_13_" gradientUnits="userSpaceOnUse" x1="238.7419" y1="-1342.6067" x2="242.2354" y2="-1342.6067" gradientTransform="matrix(1.2682 0.1596 0.2082 -1.6547 89.3103 -2196.947)">
			<stop  offset="0" style="stop-color:#EF476F"/>
			<stop  offset="1" style="stop-color:#F05234"/>
		</linearGradient>
		<path id="left_x5F_top_x5F_part_4_" class="st35" d="M116.9,63.4c-0.2,1.5-1.4,2.7-2.6,2.5c-1.2-0.1-2.1-1.5-1.8-3.2
			s1.4-2.7,2.6-2.5c0.4,0,0.7,0.2,1,0.5C116.7,61.3,117.1,62.3,116.9,63.4z"/>
		
			<linearGradient id="left_x5F_botton_x5F_part_13_" gradientUnits="userSpaceOnUse" x1="238.7264" y1="-1344.4783" x2="242.2365" y2="-1344.4783" gradientTransform="matrix(1.2682 0.1596 0.2082 -1.6547 89.3103 -2196.947)">
			<stop  offset="0" style="stop-color:#EF476F"/>
			<stop  offset="1" style="stop-color:#F05234"/>
		</linearGradient>
		<path id="left_x5F_botton_x5F_part_4_" class="st36" d="M116.9,63.4l-1,7.4c0,0-5-5.9-3.1-9.2L116.9,63.4z"/>
	</g>
	<g id="left_x5F_part_x5F_heart_8_">
		
			<linearGradient id="right_x5F_top_13_" gradientUnits="userSpaceOnUse" x1="242.2178" y1="-1342.6697" x2="245.7159" y2="-1342.6697" gradientTransform="matrix(1.2682 0.1596 0.2082 -1.6547 89.3103 -2196.947)">
			<stop  offset="0" style="stop-color:#EF476F"/>
			<stop  offset="1" style="stop-color:#F05234"/>
		</linearGradient>
		<path id="right_x5F_top_4_" class="st37" d="M116.9,63.4c-0.2,1.5,0.6,2.9,1.8,3.2c1.2,0.2,2.4-1,2.6-2.5c0.2-1.5-0.6-2.9-1.9-3.1
			C118.3,60.7,117.1,61.8,116.9,63.4z"/>
		
			<linearGradient id="right_x5F_bottom_13_" gradientUnits="userSpaceOnUse" x1="242.2013" y1="-1344.4995" x2="245.7286" y2="-1344.4995" gradientTransform="matrix(1.2682 0.1596 0.2082 -1.6547 89.3103 -2196.947)">
			<stop  offset="0" style="stop-color:#EF476F"/>
			<stop  offset="1" style="stop-color:#F05234"/>
		</linearGradient>
		<path id="right_x5F_bottom_4_" class="st38" d="M116.9,63.4l-1,7.4c0,0,6.3-4.4,5.3-8.1L116.9,63.4z"/>
	</g>
</g>
</svg>
