<?xml version="1.0" encoding="utf-8"?>
<!-- Generator: Adobe Illustrator 23.0.1, SVG Export Plug-In . SVG Version: 6.00 Build 0)  -->
<svg version="1.1" id="flower" xmlns="http://www.w3.org/2000/svg" xmlns:xlink="http://www.w3.org/1999/xlink" x="0px" y="0px"
	 viewBox="0 0 193 192.9" style="enable-background:new 0 0 193 192.9;" xml:space="preserve">
<style type="text/css">
	.st0{fill:url(#circle_1_);stroke:#000000;stroke-width:0.75;stroke-miterlimit:10;}
	.st1{fill:#FFDDE1;stroke:#000000;stroke-width:0.5;stroke-miterlimit:10;}
	.st2{fill:#FFDDE1;}
	.st3{fill:url(#stem_1_);stroke:#000000;stroke-width:0.5;stroke-miterlimit:10;}
	.st4{fill:#FF4B2B;}
</style>
<linearGradient id="circle_1_" gradientUnits="userSpaceOnUse" x1="0.4" y1="-306.61" x2="192.6" y2="-306.61" gradientTransform="matrix(1 0 0 -1 0 -210.11)">
	<stop  offset="0" style="stop-color:#11988D"/>
	<stop  offset="0" style="stop-color:#FCF4E5"/>
</linearGradient>
<circle id="circle" class="st0" cx="96.5" cy="96.5" r="96.1"/>
<g id="leaf_2_">
	
		<ellipse id="leaf_x5F_left" transform="matrix(0.5883 -0.8086 0.8086 0.5883 -68.3493 116.97)" class="st1" cx="80.7" cy="125.6" rx="10.6" ry="24.2"/>
</g>
<g id="leaf">
	
		<ellipse id="leaf_1_" transform="matrix(0.884 -0.4675 0.4675 0.884 -41.5414 65.7934)" class="st1" cx="111.8" cy="116.6" rx="19.4" ry="7.4"/>
</g>
<circle id="core" class="st2" cx="99" cy="61.7" r="17.9"/>
<linearGradient id="stem_1_" gradientUnits="userSpaceOnUse" x1="94.5853" y1="68.876" x2="103.3853" y2="68.876" gradientTransform="matrix(1 0 0 -1 0 193.276)">
	<stop  offset="0" style="stop-color:#FF416C"/>
	<stop  offset="1" style="stop-color:#FF4B2B"/>
</linearGradient>
<path id="stem" class="st3" d="M99.3,169.7h-0.6c-2.2,0-4.1-1.8-4.1-4.1V83.2c0-2.2,1.8-4.1,4.1-4.1h0.6c2.2,0,4.1,1.8,4.1,4.1v82.4
	C103.4,167.8,101.6,169.7,99.3,169.7z"/>
<g>
	<g id="left_x5F_part_x5F_heart_2_">
		<path id="left_x5F_top_x5F_part_1_" class="st4" d="M91.8,63.1c8.5-3.8,18.6,0.3,22.6,9.2s0.4,19.1-8.2,23
			c-8.5,3.8-18.6-0.3-22.6-9.2c-1.2-2.6-1.7-5.4-1.6-8.1C82.3,71.6,85.8,65.8,91.8,63.1z"/>
		<path id="left_x5F_botton_x5F_part_1_" class="st4" d="M91.8,63.1l40.1-18c0,0-9.1,53.5-33.1,51.6L91.8,63.1z"/>
	</g>
	<g id="left_x5F_part_x5F_heart_1_">
		<path id="left_x5F_top_x5F_part_2_" class="st4" d="M114.8,77.9c0.1,2.7-0.4,5.5-1.6,8.1c-4,8.9-14.1,13-22.6,9.2
			s-12.2-14.1-8.2-23s14.1-13,22.6-9.2C110.9,65.8,114.5,71.6,114.8,77.9z"/>
		<path id="left_x5F_botton_x5F_part_2_" class="st4" d="M98,96.7c-24,1.9-33.1-51.6-33.1-51.6l40.1,18L98,96.7z"/>
	</g>
</g>
<g id="heart_x5F_body">
	<g id="left_x5F_part_x5F_heart_3_">
		<path id="left_x5F_top_x5F_part" class="st4" d="M97.8,34.2c0,3.2-2.6,5.7-5.8,5.7s-5.8-2.6-5.8-5.7c0-3.2,2.6-5.7,5.8-5.7
			c1,0,1.9,0.2,2.7,0.6C96.5,30.1,97.8,32,97.8,34.2z"/>
		<path id="left_x5F_botton_x5F_part" class="st4" d="M97.8,34.2l-0.1,14.9c0,0-14.8-10.3-11-17.4L97.8,34.2z"/>
	</g>
	<g id="left_x5F_part_x5F_heart">
		<path id="right_x5F_top" class="st4" d="M97.7,34.2c0,3.2,2.6,5.7,5.8,5.7c3.2,0,5.8-2.5,5.8-5.7s-2.6-5.7-5.8-5.7
			S97.8,31.1,97.7,34.2z"/>
		<path id="right_x5F_bottom" class="st4" d="M97.7,34.2l-0.1,14.9c0,0,14.9-10.2,11.1-17.3L97.7,34.2z"/>
	</g>
</g>
</svg>
