<?xml version="1.0" encoding="utf-8"?>
<!-- Generator: Adobe Illustrator 23.0.1, SVG Export Plug-In . SVG Version: 6.00 Build 0)  -->
<svg version="1.1" id="Ellipse_1__x2B__Texture_3__x2B__Red_Filter_xA0_Image_1_"
	 xmlns="http://www.w3.org/2000/svg" xmlns:xlink="http://www.w3.org/1999/xlink" x="0px" y="0px" viewBox="0 0 193 193"
	 style="enable-background:new 0 0 193 193;" xml:space="preserve">
<style type="text/css">
	.st0{fill:url(#circle_1_);stroke:#000000;stroke-width:0.75;stroke-miterlimit:10;}
	.st1{fill:#FF416C;}
</style>
<linearGradient id="circle_1_" gradientUnits="userSpaceOnUse" x1="1.0425" y1="96.776" x2="193.2425" y2="96.776" gradientTransform="matrix(1 0 0 -1 0 193.276)">
	<stop  offset="0" style="stop-color:#DAE2F8"/>
	<stop  offset="0" style="stop-color:#FDF5E6"/>
</linearGradient>
<circle id="circle" class="st0" cx="96.5" cy="96.5" r="96.1"/>
<g id="left_x5F_part_x5F_heart_3_">
	<path id="left_x5F_top_x5F_part_1_" class="st1" d="M97.4,77.7c0,17.2-14.9,31.3-32.1,31.3S33.3,94.9,33.3,76.9
		s14.9-31.3,32.1-31.3c5.5,0,10.2,1.6,14.9,3.9C90.4,55.1,97.4,65.2,97.4,77.7z"/>
	<path id="left_x5F_botton_x5F_part_1_" class="st1" d="M97.4,77.7l-0.8,82.1c0,0-82.1-57.1-61-96.2L97.4,77.7z"/>
</g>
<g id="left_x5F_part_x5F_heart_2_">
	<path id="right_x5F_top_1_" class="st1" d="M96.6,77.7c0,17.2,14.1,31.3,32.1,32.1c18,0,32.1-14.1,32.1-31.3s-14.1-31.3-32.1-31.3
		C111.5,46.4,96.6,59.7,96.6,77.7z"/>
	<path id="right_x5F_bottom_1_" class="st1" d="M96.6,77.7l-0.8,82.1c0,0,82.1-56.3,61.8-95.4L96.6,77.7z"/>
</g>
</svg>
