<?xml version="1.0" encoding="utf-8"?>
<!-- Generator: Adobe Illustrator 23.0.1, SVG Export Plug-In . SVG Version: 6.00 Build 0)  -->
<svg version="1.1" id="kiss_x5F_lips" xmlns="http://www.w3.org/2000/svg" xmlns:xlink="http://www.w3.org/1999/xlink" x="0px"
	 y="0px" viewBox="0 0 192.9 193" style="enable-background:new 0 0 192.9 193;" xml:space="preserve">
<style type="text/css">
	.st0{fill:url(#circle_1_);stroke:#030303;stroke-width:0.75;stroke-miterlimit:10;}
	.st1{fill:url(#SVGID_1_);}
	.st2{fill:url(#SVGID_2_);}
</style>
<linearGradient id="circle_1_" gradientUnits="userSpaceOnUse" x1="0.375" y1="-906.3467" x2="192.575" y2="-906.3467" gradientTransform="matrix(1 0 0 -1 0 -809.8717)">
	<stop  offset="0" style="stop-color:#1B9890"/>
	<stop  offset="0" style="stop-color:#FCF4E8"/>
</linearGradient>
<circle id="circle" class="st0" cx="96.5" cy="96.5" r="96.1"/>
<g id="lips">
	<g id="top_x5F_lip">
		<linearGradient id="SVGID_1_" gradientUnits="userSpaceOnUse" x1="26.6606" y1="73.7297" x2="166.2894" y2="73.7297">
			<stop  offset="0" style="stop-color:#EF446D"/>
			<stop  offset="1" style="stop-color:#F04F34"/>
		</linearGradient>
		<path class="st1" d="M166.3,90.9c-14.8,1.2-29.8-0.1-44.2-3.7c-2.3-0.6-4.6-1.2-7-1.4c-9-0.6-18,5.7-26.7,3.2
			c-2.7-0.8-5.1-2.3-7.8-3c-2.2-0.5-4.5-0.5-6.7-0.3c-7.1,0.4-14.2,1.1-21.2,2.3c-8.6,1.4-17.3,3.5-26,2.5c8.5-4,16.4-9.4,23.2-15.9
			c4.7-4.5,9-9.6,14.4-13.2c5.1-3.5,11.3-5.6,17.4-5.3c6.2,0.3,12.3,3.3,15.8,8.4c2.6-2.5,5.8-4.4,9.2-5.7c3.4-1.3,7.1-2.1,10.8-2.1
			c7.3,0.2,14,3.8,19.7,8.4c5.6,4.6,10.4,10.1,15.7,15c4.1,3.7,8.4,7.1,13.1,10.1"/>
		<g>
			<path d="M166.6,90.6c-10.5,0.8-21,0.4-31.3-1.1c-7.6-1.1-15.5-4.5-23.3-3.9c-3.9,0.3-7.5,1.6-11.3,2.5c-6,1.5-10.7,1-16.4-1.2
				c-7.2-2.8-15.4-1.3-22.9-0.4c-3,0.4-32.2,5.7-32.4,3.9c-0.1-1,6.6-4.2,8.3-5.3c3.3-2.1,6.5-4.5,9.5-7c6.2-5.3,11.3-12,18.1-16.6
				c10.2-6.9,24.2-7.1,32,3.3c0.2,0.3,1.1,0,1.2-0.2c6.8-6.1,16.5-9.1,25.4-6.4c5.7,1.7,10.7,5.1,15.1,9c9,7.9,16.6,16.7,26.7,23.3
				c0.4,0.2,1.7-0.3,1.4-0.5c-7.5-4.9-13.9-10.7-20.2-17.1c-5.5-5.6-11.3-11.2-18.7-14.3c-5.7-2.4-11.7-2.8-17.6-1.3
				c-2.8,0.7-5.6,1.8-8.1,3.3c-0.9,0.5-1.8,1.3-2.7,1.8c-2.4,1.1-1.9,0.5-3.9-1.4c-8.5-7.6-21.1-6.2-30.2-0.7
				c-6.1,3.8-10.8,9.3-15.9,14.2c-6.8,6.4-14.6,11.6-23,15.7c-0.3,0.1-0.4,0.5,0,0.5c11.5,1.1,22.7-2.2,34-3.6
				c7.4-0.9,15.7-2.4,22.9,0.2c3.9,1.5,7,2.7,11.3,2.4c5.4-0.5,10.4-2.7,15.7-3.5c6.6-0.9,13.2,1.7,19.6,2.9
				c12,2.2,24.1,2.8,36.2,1.9C166.4,91.2,167.5,90.5,166.6,90.6L166.6,90.6z"/>
		</g>
	</g>
	<g id="bottom_x5F_lip">
		<linearGradient id="SVGID_2_" gradientUnits="userSpaceOnUse" x1="28.3385" y1="115.3721" x2="164.6115" y2="115.3721">
			<stop  offset="0" style="stop-color:#EF446D"/>
			<stop  offset="1" style="stop-color:#F04F34"/>
		</linearGradient>
		<path class="st2" d="M28.4,93.9c0,0.1,0,0.2,0,0.3c0,0.1,0,0.2,0,0.3c0,0.1,0.3,0.2,0.4,0.3c0.3,0.2,0.6,0.4,1,0.6
			c0.6,0.4,1.3,0.9,1.9,1.4c1.3,1,2.6,2.1,3.8,3.3c1.2,1.2,2.4,2.4,3.5,3.6c1.1,1.3,2.2,2.6,3.3,3.9c1.1,1.3,2.1,2.7,3.2,4
			c1,1.3,2.1,2.7,3.1,4c6.1,7.7,12.9,15.4,22.2,18.8c8.5,3.1,18,2.1,26.8,0c10.8,4.9,24,1.8,33.8-5c9.8-6.7,16.9-16.7,23.5-26.6
			c2.5-3.7,5.5-7.9,10-8.5c-14.1-0.3-28.4-0.6-42,3.1c-6.7,1.9-13.1,4.7-19.5,7.5c-3.2,1.4-6.6,2.8-10.1,2.4c-2.8-0.3-5.3-1.7-7.7-3
			c-3.1-1.5-6.2-2.9-9.5-4c-10.9-3.7-22.5-4.8-33.9-5.6C37.4,94.6,32.9,94.2,28.4,93.9"/>
		<g>
			<path d="M27.6,94.1c0,0.2,0,0.4,0,0.6c0,0,0,0,0,0.1c12.7,8.5,19.3,22.7,30.6,32.7c5.4,4.8,11.7,8,18.9,9c3.6,0.5,7.4,0.4,11,0
				c3.3-0.4,6.7-1.7,10.1-1.1c6.1,1.1,10.9,2.3,17.1,1.2c5.6-1.1,11-3.4,15.8-6.5c6.4-4.2,11.7-9.9,16.3-15.9c2.1-2.7,4.1-5.5,6-8.4
				c2.8-4.2,5.6-9.7,11-10.9c0.2,0,1.3-0.6,0.6-0.6c-10.8-0.3-21.7-0.5-32.5,1.1c-10.6,1.6-20.1,5.6-29.9,9.7
				c-3.1,1.3-7.3,2.5-10.7,1.9c-1.7-0.3-3.7-1.5-5.3-2.3c-2.3-1.2-4.6-2.3-7-3.2c-5-2-10.2-3.4-15.5-4.3
				c-11.6-2.2-23.6-2.7-35.3-3.5c-0.3,0-1.7,0.6-0.9,0.6C39.6,95,51.5,95.5,63,97.7c4.7,0.9,9.4,2.1,13.9,3.7
				c4.7,1.7,9.1,4.9,14,6.1c7.7,1.9,16.3-4,23-6.7c12.1-4.7,24.5-6.2,37.3-6.2c2,0,11.7,0.6,11.9,0c0.1-0.3-2.8,1.3-2.7,1.3
				c-1.6,1-2.8,2.4-4,3.8c-5.9,7.3-10.3,15.5-16.9,22.2c-9.1,9.4-22.1,16.8-35.6,14.1c-2.2-0.4-4.3-1.6-6.5-1.8
				c-3.2-0.2-8.1,1.6-11.3,1.8c-3.8,0.2-7.6,0.1-11.4-0.8c-11-2.6-18.8-11.2-25.5-19.8c-3.5-4.4-6.8-9-10.7-13.1
				c-1.7-1.8-3.5-3.6-5.5-5.2c-0.9-0.7-3.8-2.1-3.9-3.4C29.1,93.5,27.6,93.7,27.6,94.1L27.6,94.1z"/>
		</g>
	</g>
</g>
</svg>
