<?xml version="1.0" encoding="utf-8"?>
<!-- Generator: Adobe Illustrator 23.0.1, SVG Export Plug-In . SVG Version: 6.00 Build 0)  -->
<svg version="1.1" id="love_x5F_letter" xmlns="http://www.w3.org/2000/svg" xmlns:xlink="http://www.w3.org/1999/xlink" x="0px"
	 y="0px" viewBox="0 0 193 192.9" style="enable-background:new 0 0 193 192.9;" xml:space="preserve">
<style type="text/css">
	.st0{fill:url(#circle_1_);stroke:#010101;stroke-width:0.75;stroke-miterlimit:10;}
	.st1{fill:url(#body_x5F_letter_1_);stroke:#000000;stroke-width:0.5;stroke-miterlimit:10;}
	.st2{fill:#FFFFFF;stroke:#000000;stroke-width:0.5;stroke-miterlimit:10;}
	.st3{fill:none;stroke:#000000;stroke-width:0.5;stroke-miterlimit:10;}
	.st4{fill:#FF416C;}
</style>
<linearGradient id="circle_1_" gradientUnits="userSpaceOnUse" x1="0.4" y1="620.916" x2="192.6" y2="620.916" gradientTransform="matrix(1 0 0 1 0 -524.416)">
	<stop  offset="0" style="stop-color:#14988E"/>
	<stop  offset="0" style="stop-color:#FCF4E6"/>
</linearGradient>
<circle id="circle" class="st0" cx="96.5" cy="96.5" r="96.1"/>
<g>
	
		<linearGradient id="body_x5F_letter_1_" gradientUnits="userSpaceOnUse" x1="36.6" y1="100.276" x2="156.4" y2="100.276" gradientTransform="matrix(1 0 0 -1 0 193.276)">
		<stop  offset="1" style="stop-color:#F9D3E4"/>
		<stop  offset="1" style="stop-color:#FBDEEB"/>
		<stop  offset="1" style="stop-color:#FFFCFD"/>
		<stop  offset="1" style="stop-color:#FFFFFF"/>
	</linearGradient>
	<rect id="body_x5F_letter" x="36.6" y="59.6" class="st1" width="119.8" height="66.8"/>
	<path id="left_x5F_fold" class="st2" d="M96.5,93L36.6,59.6L96.5,93z"/>
	<line id="right_x5F_fold" class="st3" x1="96.5" y1="93" x2="156.4" y2="59.6"/>
	<g id="heart_x5F_body">
		<g id="left_x5F_part_x5F_heart_1_">
			<path id="left_x5F_top_x5F_part" class="st4" d="M96,86.6c0,4.4-3.7,8-8.2,8s-8.2-3.6-8.1-8.1s3.7-8,8.2-8c1.3,0,2.6,0.3,3.8,0.9
				C94.2,80.8,96,83.5,96,86.6z"/>
			<path id="left_x5F_botton_x5F_part" class="st4" d="M96,86.6l-0.1,20.9c0,0-20.9-14.5-15.5-24.5L96,86.6z"/>
		</g>
		<g id="left_x5F_part_x5F_heart">
			<path id="right_x5F_top" class="st4" d="M95.9,86.6c0,4.4,3.6,8,8.2,8.1c4.5,0,8.2-3.6,8.2-8s-3.6-8-8.2-8
				C99.6,78.6,95.9,82.1,95.9,86.6z"/>
			<path id="right_x5F_bottom" class="st4" d="M95.9,86.6l-0.1,20.9c0,0,21-14.3,15.7-24.4L95.9,86.6z"/>
		</g>
	</g>
</g>
</svg>
